<?xml version="1.0" encoding="utf-8"?>
<!-- Generator: Adobe Illustrator 21.0.0, SVG Export Plug-In . SVG Version: 6.00 Build 0)  -->
<svg version="1.1" id="图层_1" xmlns="http://www.w3.org/2000/svg" xmlns:xlink="http://www.w3.org/1999/xlink" x="0px" y="0px"
	 viewBox="0 0 612 792" style="enable-background:new 0 0 612 792;" xml:space="preserve">
<style type="text/css">
	.st0{fill:#EEEEEE;}
	.st1{fill:#44BDE1;}
	.st2{fill:#9EC66E;}
	.st3{fill:#E9D2BD;}
	.st4{fill:#E4E5E4;}
	.st5{fill:#E2E1E1;}
	.st6{fill:#D1D2D2;}
	.st7{fill:#D0BEAB;}
	.st8{fill:#DADADA;}
	.st9{fill:#EF907D;}
	.st10{fill:#89AA5E;}
	.st11{fill:#D6816F;}
	.st12{fill:#BB7162;}
	.st13{fill:#C4C3C3;}
	.st14{fill:#969797;}
	.st15{fill:#C57868;}
	.st16{fill:#C9C9C8;}
	.st17{fill:#BAB9B9;}
	.st18{fill:#B4B4B4;}
	.st19{fill:#A1A2A2;}
	.st20{fill:#A3A5A5;}
	.st21{fill:#F4AC4F;}
	.st22{fill:#CD9143;}
	.st23{fill:#CBCBCB;}
	.st24{fill:#D6D5D4;}
	.st25{fill:#CFCECE;}
	.st26{fill:#EFEFEF;}
	.st27{fill:#DFDFDF;}
	.st28{fill:#B7B6B5;}
	.st29{fill:#DFDDDD;}
	.st30{fill:#DFDFDE;}
	.st31{fill:#D7211D;}
	.st32{fill:#F9F9F9;}
	.st33{fill:#F8F8F8;}
	.st34{fill:#E9E8E8;}
	.st35{fill:#A61D1C;}
	.st36{fill:#E7E6E6;}
	.st37{fill:#E5E3E3;}
	.st38{fill:#991B1B;}
	.st39{fill:#B61D1B;}
	.st40{fill:#FDFDFD;}
	.st41{fill:#FEFDFD;}
	.st42{fill:#FEFEFE;}
	.st43{fill:#CDCBCB;}
	.st44{fill:#EEEDED;}
	.st45{fill:#D1D0D0;}
	.st46{fill:#D2D0D0;}
	.st47{fill:#93191A;}
	.st48{fill:#971A1A;}
	.st49{fill:#D2CFCF;}
	.st50{fill:#9F1C1C;}
	.st51{fill:#9E1C1C;}
</style>
<g>
	<path class="st0" d="M98,396.1c-0.3-112.8,95.6-212.9,216.9-208.9c107.2,3.5,204.9,94,201.8,215.9
		c-2.7,107.2-94.1,206.7-217.2,202.7C192.5,602.3,98,512,98,396.1z"/>
	<path class="st1" d="M307,197.1c8-0.5,16,0.2,23.9,0.9c13,1.8,26,3.7,38.4,8c8,2.8,15.8,5.9,23.3,9.8
		c23.3,11.5,42.8,27.9,60.2,46.9c9.5,11.4,17.9,23.6,24.8,36.8c8.9,16.9,14.9,34.9,18.6,53.6c1.8,11.7,3.2,23.3,3.3,35.1
		c0,10.3-0.9,20.6-2.4,30.7c-3,15.8-7.3,31.3-13.6,46.2c-1.7,4-3.6,7.8-5.5,11.7c-20.1,37.4-48.9,66-87.1,85
		c-15.3,7.6-31.5,12.4-48.1,16.3c-10.9,1.9-21.8,3.3-32.9,3.2c-1.3-0.1-2.4-0.4-3.3-1.3c-2-6.9-0.8-13.9-1.1-20.9
		c0.3-9,0.1-18,0.2-26.9c0.1-6.5,1.2-8,7.8-8.3c6-0.3,11.9-1,17.8-2c54.7-9.2,100.5-55.6,108.9-110.4c3.7-18.7,2.2-37.2-2-55.6
		c-3-13.8-8.7-26.5-16-38.5c-22.4-34.7-53.7-56.2-94.7-63.1c-5.6-0.9-11.3-0.6-16.9-1.5c-1.6-0.5-3.5-0.7-4.4-2.5
		c-1.3-8.4-0.2-16.9-0.6-25.4C305.2,215.6,305.8,206.4,307,197.1z"/>
	<path class="st2" d="M115,401.9c0-3.9,0-7.8,0.1-11.7c2.9-2.7,6.6-1.5,9.9-1.7c5-0.1,10-0.1,15,0c9.3,0.1,18.5-0.7,27.8,0.4
		c3.3,1.6,3.2,4.8,3.4,7.7c1.8,32.8,14.1,61.1,36.7,84.9c1,1.1,2.1,2.1,2.6,3.6c0.8,2.7-1,4.4-2.6,6c-4.4,4.5-8.8,9-13.3,13.3
		c-2.6,2.5-4.7,4.8-1.5,8.2c0.4,0.5,0.3,1.3,0.2,1.9c-2,4.7,0.4,8,3.7,10.9c16.3,14.1,34.5,24.9,54.9,31.9c13.3,4.6,26.9,7.6,41,8.3
		c2.7,0.1,5.3,0.5,7.8,1.6c4.9,2.1,6.4,7.1,4.2,13.1c-1,0.6-2.1,0.8-3.2,0.9c-8.7,0.1-17.2-1.4-25.7-2.3c-21-3.6-41.1-10-59.9-20.2
		c-32.3-17.5-57.7-42-76.4-73.6c-10.4-17.7-17.6-36.6-21.8-56.7c-1.5-7.3-2.9-14.8-2.5-22.4C115.6,404.8,115.9,403.3,115,401.9z"/>
	<path class="st3" d="M140,389.9c-5,0-10,0-15,0c-2.5-6.3-1.5-12.8-0.9-19.2c2.2-22.1,7.9-43.2,17.8-63.1
		c10.9-21.9,25.4-40.9,43.7-57.1c15.5-13.7,32.8-24.3,52-32c14.2-5.7,28.8-9.9,44-11.5c2.8-0.3,5.5-1,8.3-0.9
		c5.3,0,10.6-0.1,15.8-0.1c2,3.9-0.7,7.7-0.5,11.6c0.6,12.4-2.8,24.7-2,37.2c0.1,1-0.3,2-0.7,2.9c-0.9,1.4-2.4,1.6-3.8,1.7
		c-32.6,2.7-60.7,15-83.6,38.6c-0.9,1-1.8,2-3.1,2.4c-4.9-1.3-7.8-5.5-11.4-8.5c-3.6-3-6.6-6.5-10-9.8c-3.5-3.4-4.4-3.5-8,0.6
		c-11.2,12.9-20.4,27.1-27.3,42.7c-8.5,19.2-12.9,39.4-14.2,60.4C141.2,387.2,141.2,388.7,140,389.9z"/>
	<path class="st4" d="M115,401.9c1.6,8.8,1.9,17.7,4,26.4c14.6,62.3,50.9,107.3,108.6,134.8c14.4,6.9,29.7,11.4,45.6,14
		c0.6,0.1,1.2,0.5,1.8,0.8c6.4,1.6,12.9,2,19.4,3c4,0.6,7.4,1.8,9.7,5.3c3,4.6,7.8,5.6,12.7,5.3c26.3-1.9,51.6-7.7,75.2-19.8
		c17.1-8.7,32.8-19.4,46.8-32.8c19.5-18.8,35.4-40,47-64.5c2.3-5,4.6-10,6-15.3c0.2-1,0.6-1.9,1.2-2.7c2.1-2.3,2.5-5.3,3.2-8.2
		c0.1-0.5,0.3-0.9,0.4-1.4c1.7-4.7,2.7-9.5,4-14.3c0.4-1.4-0.1-3.6,2.4-3.6c-0.8,12.1-5.2,23.3-9.3,34.4
		c-7.9,21.4-19.2,40.9-33.5,58.6c-15,18.6-33.1,34-53.7,46.2c-20.7,12.2-42.9,20.3-66.5,24.5c-9.3,1.6-18.7,2.9-28.2,2.3
		c-1.9-0.1-3.8-0.2-5.3-1.1c-8.3-5.1-17.8-4.6-26.9-5.8c-16.6-2.2-32.5-6.8-47.8-13.3c-24.9-10.6-46.6-26-65.2-45.7
		c-17.8-19-31.7-40.4-40.7-64.9c-4.2-11.4-7.9-23-9.4-35C115.3,420.2,113.5,411.1,115,401.9z"/>
	<path class="st5" d="M290,206c-7.1,2.5-14.6,2.3-21.8,4c-23.8,5.5-45.7,14.9-65.7,28.9c-19.7,13.8-36.1,30.7-49,51
		c-13.8,21.5-22.7,44.9-26.7,70.2c-1.6,9.9-1.8,19.8-1.9,29.8c-3.3,0.1-6.6,0.2-9.9,0.4c0.8-21.7,5-42.7,12.8-63
		c11.1-29,28.7-53.6,51.7-74.1c27.3-24.4,59-40.3,95.4-46.1C279.9,206.2,284.8,203.9,290,206z"/>
	<path class="st6" d="M392.9,217c-13.8-6.2-27.7-12-42.6-15.1c-6.4-1.4-12.9-2.6-19.4-3.9c19.3,0.7,37.6,5.5,55.4,12.7
		c20.7,8.3,39.1,20.1,55.8,34.8c18.6,16.4,33,35.6,44,57.7c3.8,7.7,7.7,15.4,9.9,23.8c0.7,0.9,0.5,1.9,0.3,2.9
		c-2.7,0.5-2.7-1.9-3.2-3.3c-8.5-22.6-20.2-43.3-36.1-61.6c-14.7-17-32-30.8-51.6-41.8C401.3,220.9,397.3,218.6,392.9,217z"/>
	<path class="st7" d="M302,258c-1.3-14.4,2.5-28.7,2.1-43.1c-0.1-3.1,2.9-5.6,1.8-9c0.8-2.9-1-6.1,1.2-8.8
		c-0.1,9.3-0.2,18.6-0.2,27.9c-0.3,9.4-1,18.8,0.4,28.1c0.4,2.6,0.5,5.3,0,7.9c-0.1,0.6-0.3,1.1-0.6,1.6
		C302.5,263.6,302.8,260.2,302,258z"/>
	<path class="st8" d="M496,330c0-1,0-2,0-3c4.7,8.5,6.1,18.1,7.8,27.5c2.4,13.5,3.9,27.2,3.1,41c-0.3,5.2-0.1,10.5-1.8,15.5
		c-2.3-2.7-1-6.1-1.5-9.1c-0.1-7.4,0-14.9-0.1-22.3c0.1-3.7,0.7-7.5-0.5-11.2c-1.4-4.1-1.5-8.4-1.7-12.7c-0.1-2.5-1.6-4.9-2.2-7.5
		c-0.9-4.4-2-8.7-3.3-13.1C495.3,333.5,494.5,331.7,496,330z"/>
	<path class="st8" d="M503,429c-2.6,6.1-2.4,13.2-6,19c-1.2-1.2-1.2-2.7-0.7-4.2c2.6-9.2,4.5-18.5,5.7-28c0.2-1.3,0.7-2.6,1.5-3.6
		c0.5-0.5,1-0.5,1.5-0.2C505.7,417.8,503.3,423.3,503,429z"/>
	<path class="st6" d="M505,412c-0.3,0-0.7,0-1,0c-1.5-3.5-3-7,1-10c0,3,0,6,0,9C505,411.3,505,411.7,505,412z"/>
	<path class="st9" d="M192.8,514.1c-4-5.5-3.9-5.3,1.2-10.7c5.4-5.7,11.9-10.5,16.2-17.3c0.9-1.6,2.4-2.6,3.5-3.9
		c3.4-2.7,5.6-6.6,8.8-9.5c4,1.3,6.5,4.6,9.4,7.1c15.9,13.5,34,21.8,54.4,25.3c37.4,5.6,70.3-4,98.5-29.4
		c13.7-12.2,23-27.4,29.4-44.5c2.5-7.5,4-15.2,5.9-22.8c0.6-8,2.5-16,0.8-24c0-13.2-3.8-25.6-8.6-37.8
		c-4.5-12.2-11.7-22.7-20.4-32.2c-21.9-24.1-49.6-36.2-81.9-38.1c-1.2-0.1-2.3-0.1-3.4-0.6c-3.2-4-2.8-8.3-0.7-12.7l0.3,0
		c0.8-0.8,1.7-0.9,2.8-0.8c14.6,2.1,29.4,3.6,43.4,8.9c32.2,12.1,56.7,32.8,73.2,63.1c11.3,20.8,16.2,43.2,16.5,66.7
		c0.1,3.8-0.7,7.5-1,11.3c-1.8,15.7-7.3,30.2-15.2,43.5c-25.2,42.4-62.3,65.9-111.8,69.5c-7.1,0.5-7.1,0.4-7.1,7.7
		c0,8.3-0.1,16.7-0.1,25c-5.5,2.9-11.4,1.7-17.1,1c-18.8-2.1-37-6.9-54.2-14.8c-15-6.9-28.3-16.1-40.9-26.7
		C193.7,516.5,192.6,515.6,192.8,514.1z"/>
	<path class="st10" d="M192.8,514.1c24.2,21.4,51.9,35.8,83.8,41.6c10,1.8,20.1,3,30.3,2.2c0.1,7.3,0.1,14.7,0.2,22
		c-0.2,0.4-0.6,0.6-1,0.6c-0.4,0-0.8-0.3-1-0.6c0.5-10.7-3.2-12.2-11.6-12.8c-29.7-1.9-56.5-11.7-81.1-28.2
		c-6.6-4.5-13-9.2-18.6-14.8C190.8,521.2,189.3,517.7,192.8,514.1z"/>
	<path class="st11" d="M441.1,412.2c0-13.2-0.5-26.4-3.1-39.4c-4.3-21.9-13.4-41.6-27.6-58.9c-21.2-26-48.6-41.3-81.2-47.6
		c-7.6-1.5-15.5-1.4-23-3.3c-0.1-11.9-0.1-23.8-0.1-35.7c0-0.8,0.5-1.5,0.7-2.3c0.1,8.7,0.1,17.4,0.2,26.1c2.4,5.9,6.5,8.4,13.3,9
		c27.8,2.8,52.9,12.9,74.5,30.9c19,15.9,33.3,35.3,42.1,58.5c0.7,1.8,1.3,3.7,2.3,5.4C444.2,373.9,445.4,393,441.1,412.2z"/>
	<path class="st12" d="M311,251.8c48.4,2,85.3,24.1,111.8,64.2c0.2,0.3,0.2,0.6,0.3,1c-3.8,0.2-5.4-2.9-7.3-5.2
		c-14-16.6-30.4-30.2-50.1-39.5c-15.3-7.2-31.5-11.3-48.4-13.1C311.8,258.7,310,256.3,311,251.8z"/>
	<path class="st13" d="M505,402c-2,3.2-0.6,6.7-1,10c-1.7,10.9-3.3,21.9-6.7,32.5c-0.3,1.1-0.2,2.3-0.3,3.5c0,0,0,0,0,0
		c-1,3-1.6,6.1-3,9c-0.8,0.4-0.9,1.2-1,2c-0.9,0.5-0.3,3.2-2.5,1.6c-0.5-0.7-0.6-1.6-0.6-2.4c1.1-6.1,3.1-11.9,5-17.7
		c6.2-19.7,6.6-39.9,5.1-60.2c-0.7-9.6-2.1-19.1-4.9-28.3c-3.4-13.1-6.7-26.3-12.2-38.8c-7.4-16.8-16.6-32.4-28.4-46.5
		c-1-1.1-1.7-2.4-2.6-3.6c2.6-1.5,3.6,0.9,4.8,2.2c13.1,13.9,23.1,29.9,31.1,47.2c7.1,15.4,12,31.6,14.6,48.3
		c0.8,4.8,2.4,9.7,1.9,14.7c0.6,1.1-0.1,2.5,0.8,3.5C505,386.7,505,394.3,505,402z"/>
	<path class="st14" d="M343.8,576.9c11.2-3.6,22.7-6.1,33.6-10.5c41-16.7,72.6-44.3,95.1-82.4c1.4-2.4,2.9-4.8,4.4-7.2
		c1.9,2,0.8,4,0,6c-7.1,15.8-17.4,29.4-29,42.2c-6.2,6.8-14.1,11.7-19.9,18.8c-1.3,1.7-3,2.7-4.9,3.5c-12,7.6-24.2,15.1-37.5,20.4
		c-11.3,4.5-22.8,8.1-34.7,10.3C348.5,578.4,345.9,578.9,343.8,576.9z"/>
	<path class="st15" d="M311,251.8c0,4.1,2.2,5.8,6.1,6.2c34.2,3.3,63.7,16.5,88.3,40.8c6,5.9,10.7,13.1,17.6,18.2
		c7.7,11.6,13.1,24.3,16,38c-3.3-2.7-4.2-6.7-5.7-10.3c-8.1-19.8-20.8-36.3-36.7-50.3c-18.8-16.6-40.8-27-65.6-31.4
		c-5.4-1-10.7-1.8-16.2-2.1c-4.6-0.2-7.5-4.2-8-9.8C308.3,251.3,309.7,251.6,311,251.8z"/>
	<path class="st16" d="M504,376c-2-5.8-1.7-11.9-2.9-17.9c-5.7-30.3-17.8-57.8-36.9-82c-3.7-4.7-6.8-10.1-12.5-13
		c-11.6-11.7-22.9-23.6-36.8-32.6c-7.2-4.7-14.7-9-22-13.5c8.1,1.7,15.1,6.1,21.9,10.3c38.6,24.2,64.9,58.2,80.2,101
		c0.2,0.6,0.7,1.1,1,1.6c3.3,12.5,6.2,25.1,8,38C504.8,370.7,504.8,373.3,504,376z"/>
	<path class="st17" d="M423,546c1.5-0.8,3.2-1.2,4-3c3-2.6,6.2-4.9,9.2-7.6c1.1-1,2.1-3.1,4-0.9c-1.9,5.9-7.3,8.5-11.6,11.9
		c-26.5,20.8-56.1,34.8-89.5,40.4c-7.5,1.3-15.1,2.4-22.8,2.5c-5.8,0-9.6-3.6-10.3-9.1c0.3-0.1,0.7-0.2,1-0.2c1,0.1,2,0.2,3,0.3
		c6.6,4.1,13.8,2,20.5,1.2c28.2-3.4,55-11.4,79.3-26.5C414.3,552.1,419,549.6,423,546z"/>
	<path class="st18" d="M495,352c5.3,10.2,6.1,21.5,6.8,32.6c1,17,0.5,34.1-3.9,50.8c-2.1,7.9-5.2,15.6-6.9,23.7
		c-1.2,7.6-5.3,14-8.1,21c-0.5,0.9-1,1.8-1.7,2.6c-0.9,0.5-1.8,1.4-2.7-0.1c-0.5-2.1,0.7-3.8,1.5-5.6c7.1-16.1,12.4-32.8,15.2-50.2
		c0.4-2.3-0.3-4.6,0.7-6.8c0.2-8.6,1.9-17.1,2.1-25.8C498.4,379.9,496.7,366,495,352z"/>
	<path class="st19" d="M496,419.9c0.6,18-5.6,34.4-11.8,50.8c-1.6,4.2-3.4,8.2-5.1,12.3c0.7,1.2,0.1,2.3-0.5,3.2
		c-9.9,17.4-22,33.1-36.5,46.8c-0.4,0.3-0.8,0.6-1.3,0.8c-0.2,0-0.5,0.1-0.7,0.1c-4.3,1.3-6.2,5.6-10,7.6c-1,0.5-1.8,1.4-3,1.4
		c3.1-4.7,8-7.3,12-11.1c15.5-14.5,28.3-31,37.2-50.3c0.7-1.6,0.9-3.2,0.8-4.8c7.6-16.2,13.7-32.8,17.5-50.3
		C494.9,424.3,494.3,421.8,496,419.9z"/>
	<path class="st20" d="M423,546c-3.8,5.4-9.9,7.8-15.2,10.9c-23.6,14.1-49.4,22.2-76.6,25.8c-5.5,0.7-11.4,2.1-17.2,0.4
		c-1.7-0.5-3.7-0.7-4.1-3c11.4-0.2,22.6-2.1,33.8-3.2c14.3,0,27.3-5.1,40.3-10.1c13.4-5.1,25.8-12.1,37.5-20.5
		C421.9,546,422.5,546.1,423,546z"/>
	<path class="st21" d="M222.1,473c-1,4.7-4.8,7.1-8.1,9.9c-3.8-2.4-6-6.2-8.6-9.6c-17.3-22.3-27.3-47.5-28.6-75.9
		c-0.3-5.8-4.6-5.6-7.8-7.4c-9.7-0.1-19.3-0.1-29-0.2c1.2-41.8,15.5-78.4,43.2-109.7c2.7-3,4.3-3.4,7.4-0.3
		c6.9,7,14.2,13.5,21.3,20.3c2.7,0.4,3.8,2.8,5.7,4.3c1.1,1.1,2.3,2.2,3.4,3.4c3.3,3.5,0.6,5.7-1.6,8.1c-15.2,18-24.9,38.4-27.4,62
		c-1,13.9-1.2,27.8,2.3,41.4c4.3,18.3,13.1,34.3,25.1,48.7C220.6,469.5,222.6,470.6,222.1,473z"/>
	<path class="st22" d="M169,390.1c8-0.1,8.6,0.9,9.1,8.6c1.4,23.3,8.7,44.7,21.5,64.3c4,6.1,8.4,11.9,13.2,17.4
		c0.6,0.7,0.8,1.7,1.3,2.6c-0.9,1.5-2,2.8-3.8,3.2c-11.7-11.8-21.3-25-28.2-40.2c-7-15.6-11.5-31.8-12.1-49
		C169.8,394.6,169.3,392.3,169,390.1z"/>
	<path class="st8" d="M481,482c0.1-0.8,0.2-1.6,1-2c3.8-5.9,5.5-12.9,9-19c0.7-0.7,1.3-1.4,2-2c-2.5,10.5-7.7,19.8-12.7,29.1
		c-9.5,17.6-21.9,33.3-35.8,47.5c-12.6,12.8-26.7,23.8-42.6,32.5c-18,9.8-36.9,17.3-57.2,21.2c-9.6,1.8-19.3,2.8-29,3.5
		c-5,0.4-10-1-12.8-6.1c-2-3.8-5.8-4-9.4-4.7c-6.2-1.4-12.7-1.2-18.5-4c9,0.7,18,1.5,27,2.2c2.1,0.8,3.6,2.3,4.6,4.3
		c2.1,4.1,5.9,5.2,10.1,5c45.5-3,85.4-19.5,119.3-50c6-5.4,11.8-11.1,17-17.5c3.7-5.5,8.4-10.3,12.4-15.6
		C471.2,498.6,475.8,490.1,481,482z"/>
	<path class="st23" d="M454,522c-3.3,6.6-9.1,10.9-14.3,15.6c-8.3,7.6-17.1,14.6-26.4,20.9c-15.8,10.7-32.9,18.5-51,24.2
		c-14.9,4.7-30.3,6.8-45.8,8c-4.3,0.3-9-0.6-11.1-5.8c-0.7-1.8-2.2-3.2-3.4-4.8c1-0.1,2-0.2,3-0.3c0.3,0.1,0.7,0.1,1,0.2
		c2.7,5.9,7,8.6,13.8,8c31-2.9,60-11.7,86.6-28c11-6.8,21.7-14.1,31-23.1c0.9-0.9,1.7-2,2.5-3c0,0,0,0,0,0c3.8-2.7,6.6-6.5,10.1-9.5
		C451.2,523.5,451.9,521.5,454,522z"/>
	<path class="st24" d="M216.9,305.2c-1.7-1.7-3.4-3.3-5.1-5c11.9-14.6,27.2-24.7,44.3-32.1c13.3-5.8,27.3-8.9,41.8-10.1
		c3.8,3.7,6,8.3,7,13.5c1.6,8.7,4.9,11.4,13.7,12.2c18.7,1.7,35.8,8.1,51.6,18.1c1.5,1,3.2,2,2.9,4.2c-0.7,0.6-1.4,0.7-2.2,0.5
		c-14.8-8.9-30.3-15.8-47.5-18.6c-4.7-0.8-9.7-0.1-14.2-2.1c-4.4-2.5-6.1-6.8-7.9-11.1c-2.3-5.5-3.8-6.3-9.4-5.6
		c-28.8,3.3-53.5,15.2-74.1,35.6C217.6,304.9,217.2,305,216.9,305.2z"/>
	<path class="st25" d="M373,306c-6.3-6.2-14.3-9.4-22.1-12.9c-12-5.3-24.7-7.4-37.5-9c-3.2-0.4-6.2-1.9-7-4.9
		c-2-7.4-4.9-14.4-8.4-21.2c1.3,0,2.7,0,4,0c2.5,0.7,1.5,4.2,3.9,5c0,2.8,0.1,5.5,0.1,8.3c0,1.6-0.4,3.4,1.9,3.9
		c2.7,3.4,5.8,5.2,10.4,5.8c37.2,4.7,66.7,22.3,88,53.4c2.5,3.7,4.1,8,6.8,11.6c5.7,12.1,9,24.7,8.9,38.1c-3.4-0.2-3-3.1-3.4-5.1
		c-4.6-24.1-16.2-44.3-33.5-61.5c-2.7-2.7-5.9-4.9-8.8-7.3C375,308.9,373.3,308,373,306z"/>
	<path class="st8" d="M494,457c0.4-3.2,1.3-6.2,3-9C497,451.3,496.3,454.4,494,457z"/>
	<path class="st6" d="M504,376c0-2.7,0-5.3,0-8c2.1,3.5,0.5,7.4,1,11C503.8,378.3,504,377.1,504,376z"/>
	<path class="st26" d="M386,476.1c-14.5,14.6-32,23.6-51.7,28.7c-15.5,4-31.2,4.3-47,2c-0.5-0.1-0.9-0.5-1.3-0.7
		c-8.6-2.9-17.5-4.8-25.9-8.6c-19.3-8.9-34.8-22-46.2-39.8c-13.5-21.1-19.1-44.3-17.1-69.1c1.8-22.1,10-42,23.8-59.4
		c0.6-0.8,1.4-1.5,1.9-2.3c10.9-19,29.2-28,48.5-35.6c7.2-2.8,14.8-4,22.4-5.2c1.8-0.3,3.8-0.7,5.5,0c12.4,4.8,25.9,3.8,38.6,7.6
		c27.9,8.4,49.5,24.7,64.2,49.9c16.2,27.7,18.8,57.1,10.4,87.7c-4.4,16-13,29.8-23.9,42.3C387.4,474.2,386.6,475,386,476.1z"/>
	<path class="st26" d="M386,476.1c1.3-3.9,4.1-6.8,6.4-9.9c14.6-19.4,22.5-40.9,22.7-65.5c0.2-27.1-7.7-51.2-25-71.7
		c-17.4-20.6-39.8-33.3-66.9-37.1c-7.8-1.1-15.7-1.6-23.3-4.4c-6-2.3-12.8,0.7-19,2.1c-18,4.2-33.7,13-47.8,24.8
		c-5.7,4.8-8.4,11.8-13,17.6c-12.7,16-19.9,34.6-21.9,54.7c-1.9,19.1,0.9,37.8,8.8,55.5c10.5,23.5,27.4,40.9,50.1,52.8
		c7.8,4.1,16.1,7.1,24.8,8.8c1.6,0.3,3.4,0.3,4.1,2.2c-15.7-1.9-29.6-8.1-42.9-16.3c-7.7-4.7-14.2-10.9-21-16.7
		c-13.8-15-23.6-32.3-28.9-52.1c0.7-4.2-0.9-8.2-1.1-12.3c-1.7-29.6,6-56.3,24.4-79.7c2.9-3.7,5.2-7.7,5.9-12.5
		c0.6-4.2,3-7.1,6.2-9.9c17.5-15,37.5-24.5,60.2-28.4c5.8-1,11-1,15.1,4.6c3,4.1,8.5,4.3,13.3,4.7c24.5,2.2,46,11.5,64.4,27.6
		c22.1,19.3,34,43.9,37.6,72.7c1.5,12.4,0.8,24.9-2.6,37c-0.7,2.4-0.6,4.9-1.4,7.3C409.1,449.2,399.6,464,386,476.1z"/>
	<path class="st27" d="M415.1,432.1c-0.8-6.1,1.4-11.8,2.2-17.7c2.6-18.1,0.3-35.6-5.6-52.7c-5.4-15.8-14.3-29.7-26.1-41.3
		c-16.3-16.1-36.1-26.3-58.8-30.3c-5.2-0.9-10.5-1.3-15.7-2.1c-3.4-0.5-6.9-1.6-8.6-4.5c-3.1-5.5-7.9-5-12.6-4.2
		c-20.3,3.4-38.8,11.2-55.1,23.9c-5.9,4.6-12.1,8.9-12,17.7c0,2.1-1.7,4.3-3.2,6.1c-13.7,16.3-22.1,35.1-25.2,56
		c-1.4,9.6-2.7,19.4-0.6,29.2c0.6,2.8,1.1,5.9-0.6,8.7c-3.8-13.5-3.6-27.3-3.1-41.2c0-0.9,0.6-1.9,0.9-2.8
		c3.2-13.9,8.2-27.2,15.9-39.3c0.9-1.4,1.7-2.9,2.7-4.2c4.5-5.6,8.7-11.3,9.4-18.7c1.3-2.1,4.4-3.9,1-6.7c-1.4-2.9,0.9-4.4,2.5-5.8
		c20.6-18,44.3-29.2,71.6-32.1c4.1-0.4,6.6,1.7,8,5.3c1.5,3.7,3.2,7.3,6.9,9.5c21.7,1.3,41.9,7.6,60.3,19.2c0.7,0.4,1.1,1.2,1.7,1.8
		c7.8,4.3,14.3,10.2,20.1,16.7c11,12.4,19.5,26.4,24.5,42.3c4.5,14.3,7,28.9,5.4,44C419.6,416.9,418.3,424.7,415.1,432.1z"/>
	<path class="st28" d="M413.1,346c-3.9-1.4-4.4-5.5-6.2-8.5c-12.6-19.6-29.2-34.6-50.3-44.5c-13.1-6.2-26.9-9.9-41.4-11.1
		c-3.9-0.3-6.9-2.4-7.3-6.8c26.1,0.5,49.5,8.6,70.2,24.6c14.3,11,25.3,24.9,33.3,41.1C412.2,342.5,413.1,344,413.1,346z"/>
	<path class="st29" d="M421,409c-0.5-24.9-4.6-48.8-18.6-70.2c-8.4-13-19-23.8-31.5-32.8c0.7,0,1.3,0,2,0c15.5,10.6,27,24.6,35.9,41
		c5.5,10.1,9,20.9,11,32.2c0.3,1.8,0.5,3.6,2.1,4.8C423.9,392.5,422.5,400.8,421,409z"/>
	<path class="st17" d="M491,461c-2.4,6.6-4.2,13.5-9,19c2.4-7.2,5.7-14.1,9-21C491,459.7,491,460.3,491,461z"/>
	<path class="st17" d="M454,522c-3.2,3-6.4,6.1-9.6,9.1c-1.3,1.2-2.3,2.9-4.4,2.9c9.3-9.9,18.5-19.8,26.4-30.8
		c4.6-6.5,8.6-13.3,12.6-20.2c0.7-0.3,1.3-0.7,2-1c-3.7,10.1-10.2,18.4-16.5,26.9C461.2,513.4,457.5,517.6,454,522z"/>
	<path class="st30" d="M309,285c-3.1-0.4-4.3-2.8-5.6-5.1c-4.9-9.2-4.9-9.4-14.8-7.8c-22.7,3.8-43,12.7-60.7,27.5
		c-3,2.5-6.9,4.2-7.9,8.5c-1-1-2-2-3-3c1.6-5.4,6.5-7.8,10.5-10.9c18.7-14.5,39.5-24,63.3-26.3c8.6-0.8,9.3-0.5,12.4,7.9
		C304.3,279.5,306.8,282.1,309,285z"/>
	<path class="st30" d="M218.9,314.8c1,6.1-1.6,10.6-5.3,15.3c-7.9,9.9-13.5,21.2-17.6,33.2c-1.6,4.6-2.6,9.4-5.1,13.7
		c1.8-20.7,10.2-38.8,22.2-55.5C214.9,319.2,216.5,316.6,218.9,314.8z"/>
	<path class="st31" d="M398.9,361.4c1.4,4.1,4.3,7.4,5.3,11.7c-0.1,0.2-0.2,0.5-0.4,0.7c-0.9,1.1-2.2,1.4-3.6,1.5
		c-8.1,0.2-16.2,0.2-24.4,0c-3.3-0.1-5.3-2.4-7.6-4.4c-8.7-7.4-21.8-8.8-31-2.8c-4.1,2.7-8.3,5.7-7.6,11.7c-0.1,3.5-0.9,7,0.1,10.4
		c0.5,1.4,1.3,2.6,2.2,3.7c9.6,12,28.5,12.1,38.4,0.2c1-1.2,1.7-2.5,2.6-3.7c1.2-1.4,2.8-1.9,4.5-1.9c8.5-0.2,17-0.3,25.5,0
		c1,0,2,0.3,2.8,1c0.9,2.4,0,4.5-0.8,6.6c-5.6,15.9-16.8,26.9-31,35.2c-16,9.3-33.4,14.2-51.9,16.1c-21,2.1-41.5-0.1-61.4-6.8
		c-18.2-6.2-33.8-16.1-45-32.3c-3.6-5.3-5.8-11.2-7.2-17.4c-0.1-0.2-0.2-0.3-0.3-0.5c1.1-1.9,3-1.9,4.8-1.9c8.6-0.1,17.3-0.2,25.9,0
		c1.8,0,3.6,0.4,5,1.8c8.6,14.6,23.5,14.6,34.1,9.7c2.9-1.3,5.3-3.4,7.1-6.1c1.1-1.3,1.8-2.8,2.2-4.5c0.7-1.9,0.4-4,1.1-5.9
		c1.9-6.2-0.6-11.5-7.6-16.2c-9.7-6.5-23.2-5.6-31.9,2.2c-3.5,3.1-7.3,4.9-12.2,4.7c-6.3-0.2-12.6,0-19-0.1c-2.5,0-5.1,0.1-6.7-2.4
		c1-4.5,3.9-8,5.9-12c1.4-5,5.2-8.1,8.8-11.5c5-4.6,10.9-8,16.3-12.1c13.5-7.1,28-11.4,43-13.7c7-1.1,14-2.3,21.3-2.2
		c23.3,0.5,45.5,5.1,66.2,16.2c8,4.7,15.4,10.3,21.7,17.2C396.1,356.1,398.3,358.2,398.9,361.4z"/>
	<path class="st32" d="M307.4,499.9c-30.2-0.8-56.5-10.8-77.2-33.4c-8.8-9.6-15.5-20.7-19.6-33.2c-0.5-1.4-1.3-3.3-0.2-4.2
		c1.4-1.2,2.6,0.6,3.7,1.4c10.8,8.3,21.8,16.3,34.4,21.7c12.9,5.5,26.2,9.2,40.1,10.8c20,2.3,39.7,1,59.1-4
		c11.8-3.1,23.1-8.1,33.4-14.8c6.7-4.3,13.1-9,19.2-14.1c1.1-0.9,2.5-2.4,3.9-1.5c1.5,1,0.4,2.7-0.1,4.1
		c-8.3,23.5-23,41.6-44.9,53.6c-13.7,7.5-28.2,12.5-44,12.7c-1.3,0-2.6,0.7-3.9,0.8C310.1,500,308.7,499.9,307.4,499.9z"/>
	<path class="st33" d="M398.9,361.4c-7.3-9.3-16-17-26-23.3c1.1-2.4-0.1-3.9-1.7-5.6c-12.1-13.1-27.4-20.2-44.6-23.6
		c-22.4-4.5-43.9-1.4-64.3,9c-7,3.6-12.9,8.8-18.7,14c-1.9,1.7-2.8,3.7-1.8,6.2c-5.1,4.3-11.3,7.3-16,12.2c-3,3.2-6,6.5-9,9.8
		c-2.2,0.1-4.8,2.9-6.3,0.9c-1.5-2,0.6-4.7,1.5-6.9c14.8-33.2,40.5-53,75.8-59.5c25.8-4.7,50.5,0.3,73.4,13.4
		c18.1,10.4,31.2,25.5,40.2,44.2c0.7,1.3,1.3,2.7,1.7,4.2c0.8,2.8,2.9,6.8-3.3,4.2C399.7,360.3,399.2,361,398.9,361.4z"/>
	<path class="st34" d="M407,392c0,1.3,0,2.7,0,4c4.5,3.8,4.9,8.4,2.6,13.5c-2.3,5.2-4.8,10.2-8.6,14.5l0,0c-1.6,2.6-4.4,4.3-6,7
		c-16.8,15.2-36.7,24.2-58.8,28.4c-14.6,2.7-29.2,3.2-44,1.8c-20.5-1.9-39.6-7.8-57.1-18.7c-11.7-7.3-21.6-16.6-27.5-29.4
		c-2.4-5.2-4.7-10.4,0-15.7c0.6-0.7,0.3-2.2,0.4-3.4c2.6,0,1.9,2.3,2.2,3.6c0.4,2.1,1.1,4.1,1.4,6.2c-0.6,4.4,1.2,8.1,3.3,11.7
		c8.6,14.7,21.8,23.9,36.9,30.8c20,9.1,41.1,12.6,62.7,11.2c24.2-1.6,47.3-7.3,67.2-22.3c8.1-6.1,14.7-13.4,19.4-22.5
		c1.5-2.9,2.4-5.8,1.7-9.1C403.8,399.6,403.7,395.2,407,392z"/>
	<path class="st35" d="M407,392c-2,3.7-2.2,7.8-3.1,11.7c-1.1,5.8-3.7,10.7-8.6,14.2c-7.5,5.3-13.9,11.9-22,16.3
		c-17.1,9.2-35.3,14.6-54.8,15.1c-15.1,0.4-30.2,0.8-45.1-3c-20.5-5.2-39.2-13.7-53.9-29.5c-1-1.1-2.2-2-3.4-2.9
		c-2.7-2.7-4.8-5.8-5.2-9.7c-2.6-3-0.7-7.2-2.9-10.2c0.2-1,0.3-2,0.5-3.1c1.9,0.5,1.8,2.3,2.2,3.6c4.7,15.6,15.4,26.2,28.6,34.5
		c16.7,10.4,35.2,15.4,54.9,17.2c20,1.9,39.5,0,58.3-6.5c20.8-7.2,39.2-18,49.2-39.1c1.5-3.3,2.1-7,4.6-9.8l0.4-0.2l0.3,0.4
		C407,391.3,407,391.7,407,392z"/>
	<path class="st36" d="M244,392c-1-1.3-2.1-1.8-3.8-1.8c-10.7,0.1-21.4,0.2-32.1,0.2c0.3-1.4,0.9-2.8,0-4.3
		c-2.2-3.6-0.8-6.9,0.9-10.2c0.9,0.7,1.3,1.7,1.7,2.6c2.4,4.7,6.3,6.5,11.5,6c2.6-0.2,5.3-0.2,8,0c6.9,0.4,13.1-1.4,18.7-5.5
		c5.4-4,11.5-5.7,18.3-5.5c6.4,0.2,12,2.4,17,6.3c3.5,2.7,5.2,6,4,10.4c-0.2,1.6-0.7,2.9-2,3.9c-1.5-0.3-2-1.6-2.7-2.7
		c-6.3-10.9-19.2-14-29.8-7.1C250.3,386.7,247,389.2,244,392z"/>
	<path class="st37" d="M407,391c-0.2-0.1-0.5-0.2-0.7-0.2c-10.3-1.5-20.7-0.3-31.1-0.5c-0.7,0-1.5,1.2-2.2,1.8
		c-3.4-3.7-7.4-6.6-11.8-9c-10.9-6-25.8-1.4-28.5,9c-0.3,0.9-0.9,1.8-1.8,2.2c-1.2-0.8-1.7-1.9-1.9-3.2c-1.5-4.7,0.1-7.9,3.7-11.3
		c8.3-7.8,24.9-8.6,34-1.6c8.6,6.7,18.1,6.6,27.9,6.5c4.8,0,6.7-3.7,9.7-6.3c0.4-0.6,1-1.2,1.6-1.6c3.8,1.4,2,4.5,2,7
		c0,1.7-1.7,3.2-0.9,5.1C407,389.7,407,390.3,407,391z"/>
	<path class="st38" d="M209,378.8c0-0.9,0-1.9,0-2.8c0.3-0.4,0.6-0.7,0.9-1.1c1.4-1.3,3.1-1,4.7-0.9c7.6,0,15.3-0.2,22.9,0.1
		c4,0.2,6.9-1.2,9.8-3.8c9.7-8.8,22.4-10.2,33.4-3.2c3.4,2.1,7.9,4.3,6.5,9.8c-2.4,0.9-3.8-0.9-5.1-2.2c-8.2-8.4-27.6-6.6-34.3,2.2
		c-1.7,2.2-4,3.4-6.8,3.5c-8.9,0.1-17.9,0.1-26.8,0C212.4,380.3,210.6,379.9,209,378.8z"/>
	<path class="st39" d="M286.9,377.4c-0.6-6.9-8.1-12.6-16.9-13.4c-9.6-0.8-17.8,1.6-24.3,8.9c-1.6,1.8-3.5,2.2-5.8,2.2
		c-10-0.1-20-0.1-30-0.1c-0.1-1.1,0.1-2.2,1-3c10,2.2,20.2,0.7,30.3,0.9c2.6,0,4.7-2.3,6.6-4.1c11.5-10.8,32.3-8.5,40.7,4.7
		c2,3.1,3.6,6.9,0.9,10.6C287.1,382.4,286.1,380.2,286.9,377.4z"/>
	<path class="st26" d="M401,424c1.7-3,3.3-6,5-8.9c3.6-6.2,5.9-12.5,1.1-19.1c4.8,1.3,5.7,5.2,4.8,9
		C410.1,412.3,407.1,419.1,401,424z"/>
	<path class="st26" d="M407,389c-1.8,0-3,0.1-1.5-2.3c1.9-3,2.4-6.4,0.4-9.7c-2.5-0.4-2.8-2-2.1-4c0,0,0.3,0.1,0.3,0.1
		C410.8,375.6,412,382.6,407,389z"/>
	<path class="st26" d="M395,431c0.7-3.4,3.6-5,6-7C400.3,427.4,397.4,429,395,431z"/>
	<path class="st40" d="M241.7,337.9c-4-1.7-2.6-3.6-0.4-5.9c13.5-13.6,29.8-22,48.6-25c27-4.4,51.9,0.5,74.1,17.1
		c3.4,2.6,6.2,6,9.4,8.8c2.5,2.2,2.2,3.7-0.7,5.1c-14.8-7.3-30.3-12.2-46.8-14.6c-24-3.4-47-0.2-69.5,8.1
		C251.5,333.4,246.7,335.8,241.7,337.9z"/>
	<path class="st41" d="M336,358.9c-9.8,3.8-17.2,10.1-21,20.1c-1,3.3-2.1,6.5-4,9.4c-1.6,2.4-3.4,2.5-5,0c-1.9-2.9-3-6.1-4-9.4
		c-3.7-9.6-10.6-16.1-20.1-19.7c-2.2-2.7-0.2-3.9,1.9-4.7c3.1-1.3,6.4-1.9,9.7-2.2c12.6-1.4,25.2-1.8,37.5,1.3
		C333.5,354.3,337,354.6,336,358.9z"/>
	<path class="st42" d="M330.8,394.3c2.1-15,21.7-20,34.4-10.3c2.9,2.2,7.8,2.9,7.8,8.1c-4,8.5-11.3,11.8-20,12.2
		C344.1,404.6,336,402.5,330.8,394.3z"/>
	<path class="st42" d="M244,392c2.4-6.1,8-8.8,13.3-10.7c7.7-2.9,18.9-2.5,24.7,5.1c1.9,2.5,2.4,5.5,4.1,7.9
		c-5.4,8.4-13.6,10.5-22.8,9.9C254.9,403.7,247.7,400.4,244,392z"/>
	<path class="st41" d="M333,428c-16,4.4-32,4.3-48,0c-3.3-1.2-3.2-2.9-0.6-4.8c2.1-1.6,4.7-2.5,6.9-4c6-4,9.9-9.7,12.9-16.1
		c0.9-2,1.6-5,4.2-5.1c2.8-0.2,3.5,2.8,4.4,4.8c3.9,8.9,10,15.5,18.8,19.7C335.7,424.5,335.8,425.9,333,428z"/>
	<path class="st43" d="M357.7,354.2c0.9,0.7,1.7,1.5,2.6,2.2c0.7,0.6,1.4,1.2,2,2.3c-5.7-1.5-11.5-1.9-17.3-1.8
		c-6-4.6-13.2-5.6-20.4-6.9c-15.5-2.7-30.6-1.4-45.5,3.5c-2.5,0.8-5,1.7-7.1,3.4c-4.9,0-9.7,0.1-14.7,1.3c0.1-2.6,2.8-2.5,3.4-4.3
		c0.2-2,1.8-2.7,3.3-3.4c12.8-6.9,26.4-10.6,41-11c16.6-0.5,32.5,1.9,47.2,10C354.3,350.7,356.8,351.5,357.7,354.2z"/>
	<path class="st44" d="M333,428c2.2-1.8,1.1-3.1-0.8-3.9c-10.6-4.4-17.2-12.5-21.5-22.8c-0.4-1-0.7-2.6-2-2.6
		c-1.7-0.1-1.8,1.7-2.4,2.8c-3.2,6.8-6.6,13.3-13,17.8c-2.5,1.8-5.1,3.1-7.8,4.4c-2.7,1.3-2.6,2.6-0.5,4.3c-4-0.5-7.6-1.9-11.1-3.8
		c-0.3-3.4,2.6-3.4,4.6-4.1c6.4-2.5,12.2-5.7,16.6-11.2c3.1-3.9,5.2-8.1,4.7-13.2c0.4-2.3,0.9-4.6,2.4-6.5c1.4-3.4-0.2-6.8-0.2-10.2
		c1.7,3,3.3,6,5,9c1.1,2,2,1.9,3.1,0c1.6-3,3.3-6,5-9c0.1,3.4-1.6,6.7-0.1,10.1c1.9,1.8,1.3,4.4,2,6.5c1.2,13,9.6,19.7,20.8,23.9
		c1.5,0.6,3.3,0.7,4.7,1.6c1.4,0.9,3,2,0.7,3.7C339.8,426.2,336.6,427.8,333,428z"/>
	<path class="st45" d="M286.9,377.4c0.8,2.2,1.7,4.5,2.5,6.7c-0.5,2.1,0.3,4.4-1.2,6.3c-0.5-7.7-8.8-14.5-18.6-15.3
		c-7-0.6-13.7,0.5-19.3,4.9c-6.1,4.8-12.8,6.7-20.5,6.1c-1.7-0.1-3.4-0.2-5,0c-6.7,0.8-12.5-0.3-15.7-7.2c10.6,0,21.2,0.1,31.8,0.1
		c1.8,0,3.4-0.1,4.9-1.7C258.2,364.1,274.7,364.1,286.9,377.4z"/>
	<path class="st46" d="M405.9,378.8c-0.9,1.5-2.6,2-3.5,3.9c-1.1,2.6-3.9,3.4-6.7,3.4c-4.8,0-9.6,0.2-14.4-0.1
		c-4-0.2-7.7-1.2-10.9-3.9c-11.3-9.5-29.5-10.2-39.1,0.9c-2.4,2.8-1.8,5.3-2.2,8.1c-2.1-3.6-1-7.3-0.2-11c1-6.7,6.1-10,11.6-11.7
		c11.1-3.6,21.7-2.5,30.5,6.1c2.3,2.3,4.8,3.3,8,3.2c7-0.1,13.9-0.1,20.9,0C401.8,377.6,404,377.3,405.9,378.8z"/>
	<path class="st47" d="M357.7,354.2c-25.4-15.3-52.1-17.3-80-8.3c-6,1.9-11.5,5-17,8.1c-3.6-4,0.8-4.9,2.7-6
		c7.3-4.3,15.1-7.5,23.4-9.5c20-4.7,39.4-2.9,58.4,4.5c3.7,1.4,7.2,3.4,10.5,5.6C357.3,349.7,360.7,351.1,357.7,354.2z"/>
	<path class="st34" d="M272,356.9c0.1-2.3,1.8-3,3.6-3.6c22.3-8.1,44.6-8.1,66.8,0c1.5,0.5,4,0.8,2.6,3.6c-3,0.6-6,1.3-9,1.9
		c-0.1-2.3-1.9-3.2-3.6-3.5c-16-3.4-32-3.6-47.9,0.4c-2,0.5-3.5,1.1-2.6,3.6C278.6,358.5,275.3,357.7,272,356.9z"/>
	<path class="st48" d="M405.9,378.8c-10.2,0.1-20.3,0.2-30.5,0.3c-1.8,0-3-0.7-4.2-2c-12.7-13.9-32.3-12.5-42.4,3
		c-2.2-6.5,2.8-9.6,6.6-12.5c9.8-7.4,25.6-5.9,34.4,2.9c2.7,2.7,5.5,3.8,9.3,3.6c6.5-0.2,13-0.1,19.5-0.1c1.8,0,3.7,0.1,5.3-1
		c0.7,1.3,1.4,2.7,2.1,4C405.9,377.6,405.9,378.2,405.9,378.8z"/>
	<path class="st46" d="M343,424.9c1.2-4.1-2.7-3.1-4.2-3.6c-9.6-2.9-17-8.2-21.4-17.4c-1.2-2.5-1.4-5-1.4-7.7c1.8-0.6,2.3,0.9,3,1.9
		c7.9,11.5,18.8,16.4,32.6,15.7c2.4-0.1,5-0.7,7.4,0.3c2.8,0.1,1.7,1.1,0.4,2C354.3,419.6,349.1,423,343,424.9z"/>
	<path class="st49" d="M300.9,395.8c0.5,10.8-6.5,16.6-14.4,22c-3.9,2.7-9.3,2.6-12.6,6.4c-6.3-1.7-11.2-5.6-17.6-9.8
		c2.8,0.3,4.2,0.4,5.6,0.5c2-1.7,4.4-1.1,6.7-1.1c12.2,0.1,21.7-5,28.8-14.8C298.3,397.7,298.9,395.9,300.9,395.8z"/>
	<path class="st50" d="M359,414c-14.2,4.7-33.1-2.2-40.7-14.8c-0.7-1.1-0.8-2.6-2.3-3.1c-1.4-2.2-0.8-4.7-1.1-7.1
		c2.1-1.1,2.1,0.9,2.5,1.9c6.1,12.9,16.8,18.4,30.4,19.1c2.3,0.1,4.6-0.1,6.9,0C357.2,410.2,358.7,411.5,359,414z"/>
	<path class="st51" d="M300.9,395.8c-8.7,15.2-21.9,21-39,19c-0.7-1-2.4-1.5-1.6-3.2c0.8-1.7,2.3-1.7,3.8-1.6
		c7.3,0.3,14.4-0.3,21.1-4c6.9-3.8,12.2-8.8,15-16.3c0.2-0.6,0.5-3.3,1.9-0.5C302.8,391.6,300.5,393.4,300.9,395.8z"/>
	<path class="st40" d="M376.3,453.9c-4.8,7.2-10.4,12-16.5,16.3c-19.9,13.9-41.9,17.9-65.7,15c-20.1-2.5-37-10.9-51.3-24.9
		c-0.6-0.6-1.2-1.1-1.7-1.8c-0.8-1-2.1-2.3-1.4-3.5c1-1.7,2.6-0.6,4-0.1c12.9,4.8,26.1,8.7,39.8,10.6c13.4,1.9,26.7,2.1,40.1,1
		c10.1-0.9,20-3,29.7-5.4c6.6-1.6,12.9-4.3,19.3-6.5C373.2,454.1,374,454.1,376.3,453.9z"/>
	<path class="st25" d="M210.9,404.3c1.7,2.9,3.5,5.8,5.2,8.7c4.7,4,8.4,9,13.2,12.9c16.8,13.6,36.3,20.5,57.5,23.4
		c29,3.9,56.7,0.3,82.9-13.1c8.2-4.2,15.2-10.1,21.9-16.3c1.1-1,1.9-2.3,3.5-2.7c4-3.8,5.9-9,8.7-13.5c2,5.5-1.3,9.6-3.9,13.7
		c-10,16.2-25.2,26-42.6,32.6c-19,7.2-38.8,10.1-59,8.9c-25.8-1.6-49.8-9.1-70.3-25.6c-7.7-6.2-13.5-14.1-17.3-23.4
		C210.1,408,209.6,406.2,210.9,404.3z"/>
	<path class="st47" d="M395.1,417.2c-20,23.3-46.8,32-76,34.4c-25.5,2.1-50.2-1.6-73.3-13.4c-11.9-6.1-22.2-14-29.7-25.2
		c1.7,0,2.7,1.2,3.7,2.3c17.3,18.7,39.4,28.1,63.9,31.4c24,3.2,48,2.5,71.2-5.8c13.8-4.9,26-12.4,36.8-22.1
		C392.6,418.1,393,415.6,395.1,417.2z"/>
</g>
</svg>
